HIERARCHY
ROOT Hips
{
	OFFSET	0.000000	0.000000	0.000000
	CHANNELS 6 Xposition Yposition Zposition Zrotation Xrotation Yrotation
	JOINT LeftUpLeg
	{
		OFFSET	12.830505	-7.049846	-1.643436
		CHANNELS 3 Zrotation Xrotation Yrotation
		JOINT LeftLeg
		{
			OFFSET	0.620834	-39.957500	-1.919341
			CHANNELS 3 Zrotation Xrotation Yrotation
			JOINT LeftFoot
			{
				OFFSET	-0.413890	-44.704761	-3.870325
				CHANNELS 3 Zrotation Xrotation Yrotation
				JOINT LeftFootHeel
				{
					OFFSET	0.164738	-8.918193	-6.555130
					CHANNELS 3 Zrotation Xrotation Yrotation
					End Site
					{
						OFFSET	-0.604053	0.000000	21.044330
					}
				}
			}
		}
	}
	JOINT RightUpLeg
	{
		OFFSET	-12.830505	-7.049846	-1.643436
		CHANNELS 3 Zrotation Xrotation Yrotation
		JOINT RightLeg
		{
			OFFSET	-0.620834	-39.957500	-1.919341
			CHANNELS 3 Zrotation Xrotation Yrotation
			JOINT RightFoot
			{
				OFFSET	0.413890	-44.704761	-3.870325
				CHANNELS 3 Zrotation Xrotation Yrotation
				JOINT RightFootHeel
				{
					OFFSET	-0.164738	-8.918193	-6.555130
					CHANNELS 3 Zrotation Xrotation Yrotation
					End Site
					{
						OFFSET	0.604053	0.000000	21.044330
					}
				}
			}
		}
	}
	JOINT Spine
	{
		OFFSET	0.000000	12.498170	1.820647
		CHANNELS 3 Zrotation Xrotation Yrotation
		JOINT Spine1
		{
			OFFSET	0.000000	7.620000	0.000000
			CHANNELS 3 Zrotation Xrotation Yrotation
			JOINT LeftShoulder
			{
				OFFSET	9.167800	29.136339	-5.551221
				CHANNELS 3 Zrotation Xrotation Yrotation
				JOINT LeftArm
				{
					OFFSET	12.133453	-3.880866	1.461963
					CHANNELS 3 Zrotation Xrotation Yrotation
					JOINT LeftForeArm
					{
						OFFSET	2.507115	-31.664908	-1.069404
						CHANNELS 3 Zrotation Xrotation Yrotation
						JOINT LeftHand
						{
							OFFSET	4.116172	-24.512624	5.009439
							CHANNELS 3 Zrotation Xrotation Yrotation
							End Site
							{
								OFFSET	-0.213136	-10.931856	2.182134
							}
						}
					}
				}
			}
			JOINT RightShoulder
			{
				OFFSET	-9.167800	29.136339	-5.551221
				CHANNELS 3 Zrotation Xrotation Yrotation
				JOINT RightArm
				{
					OFFSET	-12.133453	-3.880866	1.461963
					CHANNELS 3 Zrotation Xrotation Yrotation
					JOINT RightForeArm
					{
						OFFSET	-2.507115	-31.664908	-1.069404
						CHANNELS 3 Zrotation Xrotation Yrotation
						JOINT RightHand
						{
							OFFSET	-4.116172	-24.512624	5.009439
							CHANNELS 3 Zrotation Xrotation Yrotation
							End Site
							{
								OFFSET	0.213136	-10.931856	2.182134
							}
						}
					}
				}
			}
			JOINT Neck
			{
				OFFSET	0.000000	32.926272	-3.635654
				CHANNELS 3 Zrotation Xrotation Yrotation
				JOINT Head
				{
					OFFSET	0.000000	12.481178	4.646143
					CHANNELS 3 Zrotation Xrotation Yrotation
					End Site
					{
						OFFSET	0.000000	17.715204	-2.222063
					}
				}
			}
		}
	}
}
MOTION
Frames:     9
Frame Time: 0.016667
-5.834021	100.192739	-1.263134	-0.517465	2.941339	-20.887064	8.473622	-14.805193	13.822414	0.710221	28.739210	2.395235	-5.569975	-15.989925	3.987173	0.	0.	0.	5.706445	-21.122234	-0.473786	-3.818524	27.896145	19.043602	-3.361151	-7.870694	3.137230	0.	0.	0.	0.000000	-0.000001	-0.000001	-21.050932	7.164900	-15.843671	9.664927	5.089274	-0.647080	7.260660	10.003982	10.203535	-8.782860	-23.905653	-12.250739	5.495788	0.212029	-1.859164	-8.893126	-9.263380	-6.809319	-84.452171	4.608967	-3.648375	-55.656651	-142.303223	-62.364319	-0.337420	6.814588	12.615461	10.083044	13.639130	-22.299753	24.545561	-1.310080	-8.501515	
-6.146598	100.288073	-0.840153	-0.055989	2.782975	-22.358780	7.368133	-13.932629	11.938537	0.268827	27.537315	4.068144	-5.405494	-15.614663	5.762438	0.	0.	0.	5.408103	-20.847712	-0.114678	-3.769747	27.764231	19.121737	-3.363529	-8.083952	3.989559	0.	0.	0.	0.000000	-0.000001	-0.000001	-21.886450	6.452028	-16.732386	10.029631	6.008060	-1.662167	7.103467	11.780952	11.792064	-8.357797	-24.882021	-11.702946	5.365144	0.111134	-2.270210	-10.993860	-8.362510	-11.621179	-89.288033	10.912505	-2.486812	-55.896713	-142.977646	-62.714943	0.247515	5.722324	12.594302	8.882632	14.896074	-23.694675	25.781956	-1.513815	-6.327826	
-6.433490	100.411621	-0.491144	0.411389	2.518493	-23.608372	6.739431	-13.147211	11.512913	0.088937	26.518988	4.439235	-5.396780	-15.133749	7.025305	0.	0.	0.	5.114114	-20.547935	0.379760	-3.761786	27.676342	19.312565	-3.346665	-8.179650	4.388727	0.	0.	0.	0.000000	0.000000	0.000004	-22.866873	5.663014	-21.585438	9.824132	7.820718	1.319403	7.400261	13.460643	14.000612	-8.501771	-25.538729	-11.996489	5.520423	-0.010376	-2.464869	-12.918683	-7.548567	-12.574003	-92.118340	15.694735	-1.573055	-55.820385	-143.048279	-61.718678	0.925129	4.461312	13.151159	6.512878	17.521120	-22.729057	27.587788	-1.045723	-2.813979	
-6.742185	100.595215	-0.146824	1.054951	2.257425	-24.750713	6.322526	-12.096293	11.639242	-0.333018	25.089293	5.218480	-5.814551	-14.452190	7.123286	0.	0.	0.	4.735366	-20.268423	0.866865	-3.907670	27.459965	19.535686	-3.366357	-8.191008	4.672026	0.	0.	0.	0.000000	0.000000	-0.000001	-25.061586	3.541381	-32.698296	8.844224	12.212446	10.255400	7.359915	15.347007	16.437328	-9.025531	-25.967381	-12.532370	6.139737	-0.462887	-1.991934	-13.389178	-6.523540	-6.639787	-93.469757	19.128155	-2.345747	-54.925900	-143.486908	-59.867737	1.262935	3.227260	13.326183	3.282854	21.851933	-15.119594	28.190172	-0.476176	-0.182479	
-6.989293	100.733113	0.022170	1.583943	1.915518	-26.126619	5.982667	-11.869670	13.009156	-0.129827	24.515007	5.765508	-6.557762	-13.672934	6.286634	0.	0.	0.	4.605400	-20.076538	2.300270	-3.827013	27.406492	18.940012	-3.448772	-8.129676	5.030895	0.	0.	0.	0.000000	0.000000	0.000003	-25.758280	3.033022	-31.435785	9.884158	12.400788	6.896892	6.431940	17.478024	18.767139	-9.393239	-26.210566	-12.689837	5.633185	-1.749100	-0.850741	-14.875442	-4.100023	-12.715169	-94.082520	21.000229	-5.604640	-53.227253	-144.664230	-58.025566	1.126225	1.976919	13.016630	7.050433	22.950998	-19.551502	24.976168	-0.854033	-0.727539	
-7.186408	100.825143	0.236126	1.756376	1.713250	-26.947210	6.313283	-9.898034	13.113772	-1.163486	22.582335	6.946797	-6.899692	-13.284740	5.815938	0.	0.	0.	4.603176	-19.723692	2.508675	-4.047024	27.144556	19.322914	-3.505254	-8.084327	5.231254	0.	0.	0.	0.000000	0.000000	-0.000001	-27.367386	2.045357	-38.657509	9.196133	15.043936	12.979188	5.706310	18.554733	19.855196	-9.333097	-26.198202	-12.519133	7.338020	-1.289411	-0.207818	-14.043268	-3.445046	-7.499659	-94.090668	21.400078	-7.862388	-52.293941	-145.309128	-57.149960	0.876418	1.355919	12.854165	5.980118	25.848476	-13.516870	23.044449	-0.678145	-1.549419	
-7.544648	100.890274	0.432058	1.975531	1.356736	-28.932600	6.397114	-8.875126	14.918583	-1.241934	21.486713	7.553249	-7.345345	-12.547289	5.200463	0.	0.	0.	4.882840	-19.437943	3.820145	-4.184943	27.130394	19.524393	-3.648458	-8.002175	5.686885	0.	0.	0.	0.000000	0.000000	0.000001	-28.261971	0.635781	-42.723003	8.671712	16.581514	14.849749	3.794106	20.450066	21.560970	-8.704736	-25.803747	-11.647697	7.915922	-1.635441	1.049732	-14.175638	-2.111035	-6.599442	-93.876732	21.963179	-11.974674	-50.481102	-146.572266	-55.245529	0.188850	0.334565	12.414936	5.828182	29.275167	-13.174406	20.376190	-0.105126	-1.822623	
-7.600372	100.831102	0.478840	2.220386	1.227523	-31.292471	6.546846	-8.058032	17.034723	-1.409929	20.730265	7.830589	-7.509329	-12.306166	5.103774	0.	0.	0.	5.074466	-19.966051	3.929709	-4.843332	27.626244	21.734455	-3.721862	-7.944349	5.979993	0.	0.	0.	0.000000	0.000000	0.000001	-28.156233	-0.579338	-42.703876	9.002458	16.376244	13.169557	1.561620	21.560236	23.782316	-8.263091	-24.776096	-12.111311	8.011398	-1.499130	1.403613	-14.458655	-1.966188	-6.671541	-93.605919	22.296579	-13.757142	-49.677116	-147.137405	-54.411366	-0.157028	-0.104981	12.141917	5.578894	30.027548	-13.414844	19.302349	0.152531	-1.967723	
-7.999220	100.750826	0.439062	2.514400	1.418654	-33.787292	6.478795	-6.887958	17.577787	-1.610940	19.070930	9.177335	-7.713134	-12.136805	5.571815	0.	0.	0.	5.515617	-20.705431	4.333179	-5.143019	27.987724	22.304808	-3.776643	-7.804456	7.586778	0.	0.	0.	0.000000	0.000000	0.000001	-26.357304	-2.042934	-43.346458	7.994479	15.327501	13.027265	0.995106	22.488796	22.089357	-8.093642	-24.001781	-10.384895	7.391516	-1.032537	0.698490	-14.843774	-1.544429	-8.339932	-92.466347	22.994774	-17.274757	-48.232574	-147.803589	-52.881084	-0.678582	-1.100574	11.409059	6.213807	30.550722	-14.933552	18.308228	0.019232	-3.577312	
